<svg xmlns="http://www.w3.org/2000/svg" fill="none" viewBox="0 0 27 27">
  <path fill="#264653" fill-rule="evenodd" d="M13.5 26a12.5 12.5 0 1 0 0-25 12.5 12.5 0 0 0 0 25Zm-.03-19.75s-4.34 6.15-4.34 8.5c0 2.37.33 4.58 4.34 4.58 4.07 0 4.67-2.08 4.6-4.57-.05-2.49-4.6-8.51-4.6-8.51Z" clip-rule="evenodd"/>
  <path fill="#fff" d="m13.47 6.25.2-.15-.2-.27-.2.28.2.14Zm4.6 8.5-.24.02.25-.01Zm7.68-1.25c0 6.77-5.48 12.25-12.25 12.25v.5c7.04 0 12.75-5.7 12.75-12.75h-.5ZM13.5 1.25c6.77 0 12.25 5.48 12.25 12.25h.5C26.25 6.46 20.55.75 13.5.75v.5ZM1.25 13.5c0-6.77 5.48-12.25 12.25-12.25v-.5C6.46.75.75 6.45.75 13.5h.5ZM13.5 25.75A12.25 12.25 0 0 1 1.25 13.5h-.5c0 7.04 5.7 12.75 12.75 12.75v-.5Zm-4.12-11c0-.52.25-1.3.65-2.21.4-.9.94-1.88 1.48-2.8a55.66 55.66 0 0 1 2.12-3.28l.03-.05.01-.01-.2-.15-.2-.14a.85.85 0 0 0-.05.07 34.36 34.36 0 0 0-.63.93c-.41.61-.96 1.46-1.5 2.38-.55.92-1.1 1.92-1.51 2.84-.41.91-.7 1.78-.7 2.43h.5Zm4.1 4.33c-1.97 0-2.96-.54-3.48-1.29-.54-.78-.62-1.85-.62-3.03h-.5c0 1.18.07 2.4.7 3.31.66.95 1.84 1.51 3.9 1.51v-.5Zm4.35-4.31c.03 1.23-.1 2.3-.7 3.06-.59.74-1.66 1.25-3.66 1.25v.5c2.07 0 3.33-.53 4.05-1.45.71-.9.84-2.12.8-3.38l-.5.02Zm-4.36-8.52-.2.15.02.02.03.05a37.99 37.99 0 0 1 .66.9c.42.6 1 1.43 1.56 2.33.57.9 1.14 1.89 1.57 2.79.43.9.7 1.71.72 2.28l.5-.02a6.82 6.82 0 0 0-.77-2.48 28.51 28.51 0 0 0-1.6-2.83 53.64 53.64 0 0 0-2.27-3.32l-.01-.02-.2.15Z"/>
</svg>
