<svg width="27" height="27" viewBox="0 0 27 27" fill="none" xmlns="http://www.w3.org/2000/svg">
<path fill-rule="evenodd" clip-rule="evenodd" d="M26 13.5C26 20.4036 20.4036 26 13.5 26C6.59644 26 1 20.4036 1 13.5C1 6.59644 6.59644 1 13.5 1C20.4036 1 26 6.59644 26 13.5ZM16 7.5C16 8.88071 14.8807 10 13.5 10C12.1193 10 11 8.88071 11 7.5C11 6.11929 12.1193 5 13.5 5C14.8807 5 16 6.11929 16 7.5ZM16.5 13V12C16.5 10.8954 15.6046 10 14.5 10H13.5H12.5C11.3954 10 10.5 10.8954 10.5 12V13V15V20C10.5 20.5523 10.9477 21 11.5 21C12.0523 21 12.5 20.5523 12.5 20V17H14.5V20C14.5 20.5523 14.9477 21 15.5 21C16.0523 21 16.5 20.5523 16.5 20V15V13Z" fill="#2A9D8F"/>
<path d="M12.5 17V16.75H12.25V17H12.5ZM14.5 17H14.75V16.75H14.5V17ZM13.5 26.25C20.5416 26.25 26.25 20.5416 26.25 13.5H25.75C25.75 20.2655 20.2655 25.75 13.5 25.75V26.25ZM0.75 13.5C0.75 20.5416 6.45837 26.25 13.5 26.25V25.75C6.73451 25.75 1.25 20.2655 1.25 13.5H0.75ZM13.5 0.75C6.45837 0.75 0.75 6.45837 0.75 13.5H1.25C1.25 6.73451 6.73451 1.25 13.5 1.25V0.75ZM26.25 13.5C26.25 6.45837 20.5416 0.75 13.5 0.75V1.25C20.2655 1.25 25.75 6.73451 25.75 13.5H26.25ZM13.5 10.25C15.0188 10.25 16.25 9.01878 16.25 7.5H15.75C15.75 8.74264 14.7426 9.75 13.5 9.75V10.25ZM10.75 7.5C10.75 9.01878 11.9812 10.25 13.5 10.25V9.75C12.2574 9.75 11.25 8.74264 11.25 7.5H10.75ZM13.5 4.75C11.9812 4.75 10.75 5.98122 10.75 7.5H11.25C11.25 6.25736 12.2574 5.25 13.5 5.25V4.75ZM16.25 7.5C16.25 5.98122 15.0188 4.75 13.5 4.75V5.25C14.7426 5.25 15.75 6.25736 15.75 7.5H16.25ZM16.75 13V12H16.25V13H16.75ZM16.75 12C16.75 10.7574 15.7426 9.75 14.5 9.75V10.25C15.4665 10.25 16.25 11.0335 16.25 12H16.75ZM14.5 9.75H13.5V10.25H14.5V9.75ZM13.5 9.75H12.5V10.25H13.5V9.75ZM12.5 9.75C11.2574 9.75 10.25 10.7574 10.25 12H10.75C10.75 11.0335 11.5335 10.25 12.5 10.25V9.75ZM10.25 12V13H10.75V12H10.25ZM10.25 13V15H10.75V13H10.25ZM10.25 15V20H10.75V15H10.25ZM10.25 20C10.25 20.6904 10.8096 21.25 11.5 21.25V20.75C11.0858 20.75 10.75 20.4142 10.75 20H10.25ZM11.5 21.25C12.1904 21.25 12.75 20.6904 12.75 20H12.25C12.25 20.4142 11.9142 20.75 11.5 20.75V21.25ZM12.75 20V17H12.25V20H12.75ZM12.5 17.25H14.5V16.75H12.5V17.25ZM14.75 20V17H14.25V20H14.75ZM15.5 20.75C15.0858 20.75 14.75 20.4142 14.75 20H14.25C14.25 20.6904 14.8096 21.25 15.5 21.25V20.75ZM16.25 20C16.25 20.4142 15.9142 20.75 15.5 20.75V21.25C16.1904 21.25 16.75 20.6904 16.75 20H16.25ZM16.25 15V20H16.75V15H16.25ZM16.25 13V15H16.75V13H16.25Z" fill="white"/>
</svg>
